<mxfile host="app.diagrams.net" modified="2022-06-19T05:23:33.006Z" agent="5.0 (Macintosh; Intel Mac OS X 10_15_7) AppleWebKit/537.36 (KHTML, like Gecko) Chrome/102.0.0.0 Safari/537.36" etag="PFxUSgl7Bv7X1oUQGGZE" version="20.0.1" type="github">
  <diagram id="-GEG7NYa3MDwUE9U0rUo" name="Page-1">
    <mxGraphModel dx="2036" dy="520" grid="1" gridSize="10" guides="1" tooltips="1" connect="1" arrows="1" fold="1" page="1" pageScale="1" pageWidth="850" pageHeight="1100" math="0" shadow="0">
      <root>
        <mxCell id="0" />
        <mxCell id="1" parent="0" />
        <mxCell id="B6OoX21ZwnaRHiZaLL_V-9" value="&lt;b&gt;AWS Cloud&lt;/b&gt;" style="sketch=0;outlineConnect=0;gradientColor=none;html=1;whiteSpace=wrap;fontSize=12;fontStyle=0;shape=mxgraph.aws4.group;grIcon=mxgraph.aws4.group_aws_cloud;strokeColor=#AAB7B8;fillColor=none;verticalAlign=top;align=left;spacingLeft=30;fontColor=#AAB7B8;dashed=0;" parent="1" vertex="1">
          <mxGeometry x="40" y="560" width="1204" height="1180" as="geometry" />
        </mxCell>
        <mxCell id="B6OoX21ZwnaRHiZaLL_V-30" value="Region" style="sketch=0;outlineConnect=0;gradientColor=none;html=1;whiteSpace=wrap;fontSize=12;fontStyle=1;shape=mxgraph.aws4.group;grIcon=mxgraph.aws4.group_region;strokeColor=#879196;fillColor=none;verticalAlign=top;align=left;spacingLeft=30;fontColor=#879196;dashed=1;shadow=0;" parent="1" vertex="1">
          <mxGeometry x="154.5" y="572" width="1000" height="1116" as="geometry" />
        </mxCell>
        <mxCell id="B6OoX21ZwnaRHiZaLL_V-31" value="&lt;br&gt;&lt;br&gt;&lt;br&gt;&lt;br&gt;&lt;br&gt;&lt;br&gt;&lt;br&gt;&lt;br&gt;&lt;br&gt;&lt;br&gt;&lt;br&gt;&lt;br&gt;&lt;br&gt;&lt;br&gt;&lt;br&gt;&lt;br&gt;&lt;br&gt;&lt;br&gt;&lt;br&gt;&lt;br&gt;&lt;br&gt;&lt;br&gt;&lt;br&gt;&lt;br&gt;&lt;br&gt;&lt;br&gt;&lt;br&gt;&lt;br&gt;&lt;br&gt;&lt;br&gt;&lt;br&gt;&lt;br&gt;&lt;br&gt;&lt;br&gt;&lt;br&gt;&lt;br&gt;&lt;br&gt;&lt;br&gt;&lt;br&gt;&lt;br&gt;&lt;br&gt;&lt;br&gt;&lt;br&gt;&lt;br&gt;&lt;br&gt;&lt;br&gt;&lt;br&gt;&lt;br&gt;&lt;br&gt;&lt;br&gt;&lt;br&gt;&lt;br&gt;&lt;br&gt;&lt;br&gt;&lt;br&gt;&lt;br&gt;&lt;br&gt;&lt;br&gt;&lt;br&gt;&lt;br&gt;&lt;br&gt;&lt;br&gt;&lt;br&gt;&lt;br&gt;&lt;br&gt;&lt;br&gt;&lt;br&gt;&lt;br&gt;&lt;br&gt;&lt;br&gt;&lt;br&gt;&lt;br&gt;&lt;br&gt;&lt;br&gt;&lt;br&gt;&lt;br&gt;&lt;br&gt;&lt;br&gt;&lt;br&gt;&lt;br&gt;&lt;br&gt;&lt;br&gt;&lt;br&gt;&lt;br&gt;&lt;br&gt;&lt;br&gt;&lt;br&gt;&lt;br&gt;&lt;br&gt;&lt;br&gt;&lt;br&gt;&lt;br&gt;&lt;br&gt;&lt;br&gt;&lt;br&gt;&lt;br&gt;&lt;br&gt;&lt;br&gt;&lt;br&gt;&lt;br&gt;&lt;br&gt;&lt;br&gt;&lt;br&gt;&lt;br&gt;&lt;br&gt;&lt;br&gt;&lt;br&gt;&lt;br&gt;&lt;br&gt;&lt;br&gt;&lt;br&gt;&lt;br&gt;&lt;br&gt;&lt;br&gt;&lt;br&gt;&lt;br&gt;&lt;br&gt;&lt;br&gt;&lt;br&gt;&lt;br&gt;&lt;br&gt;&lt;br&gt;&lt;br&gt;&lt;br&gt;&lt;br&gt;&lt;br&gt;&lt;br&gt;&lt;br&gt;&lt;br&gt;&lt;br&gt;&lt;br&gt;&lt;br&gt;&lt;br&gt;&lt;br&gt;&lt;br&gt;&lt;br&gt;&lt;br&gt;&lt;br&gt;&lt;br&gt;&lt;br&gt;&lt;br&gt;&lt;br&gt;&lt;br&gt;&lt;br&gt;&lt;br&gt;&lt;br&gt;&lt;br&gt;&lt;br&gt;&lt;br&gt;&lt;br&gt;&lt;br&gt;&lt;br&gt;&lt;br&gt;&lt;br&gt;&lt;br&gt;&lt;br&gt;&lt;br&gt;&lt;br&gt;&lt;br&gt;&lt;br&gt;&lt;br&gt;&lt;br&gt;&lt;br&gt;&lt;br&gt;&lt;br&gt;&lt;br&gt;&lt;br&gt;&lt;br&gt;&lt;br&gt;&lt;br&gt;&lt;br&gt;&lt;br&gt;&lt;br&gt;&lt;br&gt;&lt;br&gt;&lt;br&gt;&lt;br&gt;&lt;br&gt;&lt;br&gt;&lt;br&gt;&lt;br&gt;&lt;br&gt;&lt;br&gt;&lt;br&gt;&lt;br&gt;&lt;br&gt;&lt;br&gt;&lt;br&gt;&lt;br&gt;&lt;br&gt;&lt;br&gt;&lt;br&gt;&lt;br&gt;&lt;br&gt;&lt;br&gt;&lt;br&gt;&lt;br&gt;&lt;br&gt;&lt;br&gt;&lt;br&gt;&lt;br&gt;&lt;br&gt;&lt;br&gt;&lt;br&gt;&lt;br&gt;&lt;br&gt;&lt;br&gt;&lt;br&gt;&lt;br&gt;&lt;br&gt;&lt;br&gt;&lt;br&gt;&lt;br&gt;" style="sketch=0;outlineConnect=0;gradientColor=none;html=1;whiteSpace=wrap;fontSize=12;fontStyle=0;shape=mxgraph.aws4.group;grIcon=mxgraph.aws4.group_vpc;strokeColor=#879196;fillColor=none;verticalAlign=top;align=left;spacingLeft=30;fontColor=#879196;dashed=0;shadow=0;" parent="1" vertex="1">
          <mxGeometry x="280" y="730" width="760" height="760" as="geometry" />
        </mxCell>
        <mxCell id="fDSZwFsicnBfdJ9t3ey4-1" value="&lt;font color=&quot;#879196&quot;&gt;Availability zone 2&lt;/font&gt;" style="sketch=0;outlineConnect=0;gradientColor=none;html=1;whiteSpace=wrap;fontSize=12;fontStyle=0;shape=mxgraph.aws4.group;grIcon=mxgraph.aws4.group_availability_zone;strokeColor=#545B64;fillColor=none;verticalAlign=top;align=left;spacingLeft=30;fontColor=#545B64;dashed=1;shadow=0;" parent="1" vertex="1">
          <mxGeometry x="760" y="760" width="240" height="340" as="geometry" />
        </mxCell>
        <mxCell id="B6OoX21ZwnaRHiZaLL_V-32" value="&lt;font color=&quot;#879196&quot;&gt;Availability zone 1&lt;/font&gt;" style="sketch=0;outlineConnect=0;gradientColor=none;html=1;whiteSpace=wrap;fontSize=12;fontStyle=0;shape=mxgraph.aws4.group;grIcon=mxgraph.aws4.group_availability_zone;strokeColor=#545B64;fillColor=none;verticalAlign=top;align=left;spacingLeft=30;fontColor=#545B64;dashed=1;shadow=0;" parent="1" vertex="1">
          <mxGeometry x="320" y="760" width="240" height="340" as="geometry" />
        </mxCell>
        <mxCell id="B6OoX21ZwnaRHiZaLL_V-38" value="Auto Scaling Group" style="sketch=0;outlineConnect=0;gradientColor=none;html=1;whiteSpace=wrap;fontSize=12;fontStyle=0;shape=mxgraph.aws4.groupCenter;grIcon=mxgraph.aws4.group_auto_scaling_group;grStroke=0;strokeColor=#879196;fillColor=#ECEFEF;verticalAlign=top;align=center;fontColor=#879196;dashed=0;spacingTop=25;shadow=0;" parent="1" vertex="1">
          <mxGeometry x="350" y="788" width="610" height="222" as="geometry" />
        </mxCell>
        <mxCell id="B6OoX21ZwnaRHiZaLL_V-34" value="Public Subnet" style="sketch=0;outlineConnect=0;gradientColor=none;html=1;whiteSpace=wrap;fontSize=12;fontStyle=0;shape=mxgraph.aws4.group;grIcon=mxgraph.aws4.group_subnet;strokeColor=#879196;fillColor=none;verticalAlign=top;align=left;spacingLeft=30;fontColor=#879196;dashed=0;shadow=0;" parent="1" vertex="1">
          <mxGeometry x="380" y="799" width="160" height="200" as="geometry" />
        </mxCell>
        <mxCell id="B0TIL4bSB5Exnn931L6U-55" style="edgeStyle=orthogonalEdgeStyle;rounded=0;orthogonalLoop=1;jettySize=auto;html=1;fontColor=#000000;" edge="1" parent="1">
          <mxGeometry relative="1" as="geometry">
            <mxPoint x="635" y="1018" as="sourcePoint" />
            <mxPoint x="635" y="1091" as="targetPoint" />
            <Array as="points">
              <mxPoint x="635" y="1091" />
            </Array>
          </mxGeometry>
        </mxCell>
        <mxCell id="B6OoX21ZwnaRHiZaLL_V-39" value="Web Tier" style="text;html=1;resizable=0;autosize=1;align=center;verticalAlign=middle;points=[];fillColor=none;strokeColor=none;rounded=0;shadow=0;dashed=1;sketch=0;fontStyle=1" parent="1" vertex="1">
          <mxGeometry x="625" y="960" width="70" height="20" as="geometry" />
        </mxCell>
        <mxCell id="B6OoX21ZwnaRHiZaLL_V-46" value="" style="sketch=0;points=[[0,0,0],[0.25,0,0],[0.5,0,0],[0.75,0,0],[1,0,0],[0,1,0],[0.25,1,0],[0.5,1,0],[0.75,1,0],[1,1,0],[0,0.25,0],[0,0.5,0],[0,0.75,0],[1,0.25,0],[1,0.5,0],[1,0.75,0]];outlineConnect=0;fontColor=#232F3E;gradientColor=#F78E04;gradientDirection=north;fillColor=#D05C17;strokeColor=#ffffff;dashed=0;verticalLabelPosition=bottom;verticalAlign=top;align=center;html=1;fontSize=12;fontStyle=0;aspect=fixed;shape=mxgraph.aws4.resourceIcon;resIcon=mxgraph.aws4.auto_scaling2;shadow=0;" parent="1" vertex="1">
          <mxGeometry x="431" y="850" width="78" height="78" as="geometry" />
        </mxCell>
        <mxCell id="B6OoX21ZwnaRHiZaLL_V-47" value="" style="sketch=0;points=[[0,0,0],[0.25,0,0],[0.5,0,0],[0.75,0,0],[1,0,0],[0,1,0],[0.25,1,0],[0.5,1,0],[0.75,1,0],[1,1,0],[0,0.25,0],[0,0.5,0],[0,0.75,0],[1,0.25,0],[1,0.5,0],[1,0.75,0]];outlineConnect=0;fontColor=#232F3E;gradientColor=#F78E04;gradientDirection=north;fillColor=#D05C17;strokeColor=#ffffff;dashed=0;verticalLabelPosition=bottom;verticalAlign=top;align=center;html=1;fontSize=12;fontStyle=0;aspect=fixed;shape=mxgraph.aws4.resourceIcon;resIcon=mxgraph.aws4.auto_scaling2;shadow=0;" parent="1" vertex="1">
          <mxGeometry x="790" y="850" width="78" height="78" as="geometry" />
        </mxCell>
        <mxCell id="B6OoX21ZwnaRHiZaLL_V-50" value="DB Tier" style="text;html=1;resizable=0;autosize=1;align=center;verticalAlign=middle;points=[];fillColor=none;strokeColor=none;rounded=0;shadow=0;dashed=1;sketch=0;fontStyle=1" parent="1" vertex="1">
          <mxGeometry x="440" y="1600" width="60" height="20" as="geometry" />
        </mxCell>
        <mxCell id="B6OoX21ZwnaRHiZaLL_V-51" value="&lt;p style=&quot;line-height: 0.9;&quot;&gt;App Tier&lt;/p&gt;" style="text;html=1;resizable=0;autosize=1;align=center;verticalAlign=middle;points=[];fillColor=none;strokeColor=none;rounded=0;shadow=0;dashed=1;sketch=0;fontStyle=1" parent="1" vertex="1">
          <mxGeometry x="459" y="1210" width="60" height="40" as="geometry" />
        </mxCell>
        <mxCell id="B6OoX21ZwnaRHiZaLL_V-55" style="edgeStyle=orthogonalEdgeStyle;rounded=0;orthogonalLoop=1;jettySize=auto;html=1;" parent="1" target="B6OoX21ZwnaRHiZaLL_V-34" edge="1">
          <mxGeometry relative="1" as="geometry">
            <mxPoint x="256.5" y="1048" as="sourcePoint" />
            <mxPoint x="380" y="909" as="targetPoint" />
          </mxGeometry>
        </mxCell>
        <mxCell id="B6OoX21ZwnaRHiZaLL_V-56" style="edgeStyle=orthogonalEdgeStyle;rounded=0;orthogonalLoop=1;jettySize=auto;html=1;" parent="1" edge="1">
          <mxGeometry relative="1" as="geometry">
            <Array as="points">
              <mxPoint x="840" y="1060" />
            </Array>
            <mxPoint x="840" y="1009" as="targetPoint" />
            <mxPoint x="256.5" y="1060" as="sourcePoint" />
          </mxGeometry>
        </mxCell>
        <mxCell id="B6OoX21ZwnaRHiZaLL_V-52" value="" style="sketch=0;outlineConnect=0;fontColor=#232F3E;gradientColor=none;fillColor=#4D27AA;strokeColor=none;dashed=0;verticalLabelPosition=bottom;verticalAlign=top;align=center;html=1;fontSize=12;fontStyle=0;aspect=fixed;pointerEvents=1;shape=mxgraph.aws4.application_load_balancer;shadow=0;" parent="1" vertex="1">
          <mxGeometry x="178.5" y="1009" width="78" height="78" as="geometry" />
        </mxCell>
        <mxCell id="B6OoX21ZwnaRHiZaLL_V-57" value="Web ALB" style="text;html=1;resizable=0;autosize=1;align=center;verticalAlign=middle;points=[];fillColor=none;strokeColor=none;rounded=0;shadow=0;dashed=1;sketch=0;fontStyle=1" parent="1" vertex="1">
          <mxGeometry x="183.25" y="1087" width="70" height="20" as="geometry" />
        </mxCell>
        <mxCell id="fDSZwFsicnBfdJ9t3ey4-2" value="Public Subnet" style="sketch=0;outlineConnect=0;gradientColor=none;html=1;whiteSpace=wrap;fontSize=12;fontStyle=0;shape=mxgraph.aws4.group;grIcon=mxgraph.aws4.group_subnet;strokeColor=#879196;fillColor=none;verticalAlign=top;align=left;spacingLeft=30;fontColor=#879196;dashed=0;shadow=0;" parent="1" vertex="1">
          <mxGeometry x="760" y="799" width="160" height="200" as="geometry" />
        </mxCell>
        <mxCell id="B0TIL4bSB5Exnn931L6U-86" style="edgeStyle=orthogonalEdgeStyle;rounded=0;orthogonalLoop=1;jettySize=auto;html=1;fontColor=#919191;startArrow=none;startFill=0;strokeColor=#000000;" edge="1" parent="1" source="B0TIL4bSB5Exnn931L6U-1" target="B6OoX21ZwnaRHiZaLL_V-52">
          <mxGeometry relative="1" as="geometry" />
        </mxCell>
        <mxCell id="B0TIL4bSB5Exnn931L6U-1" value="" style="outlineConnect=0;dashed=0;verticalLabelPosition=bottom;verticalAlign=top;align=center;html=1;shape=mxgraph.aws3.cognito;fillColor=#AD688B;gradientColor=none;" vertex="1" parent="1">
          <mxGeometry x="56" y="1003.64" width="70" height="88.5" as="geometry" />
        </mxCell>
        <mxCell id="B0TIL4bSB5Exnn931L6U-6" value="&lt;font color=&quot;#879196&quot;&gt;Internet&lt;br&gt;gateway&lt;/font&gt;" style="sketch=0;outlineConnect=0;fontColor=#232F3E;gradientColor=none;strokeColor=#232F3E;fillColor=#ffffff;dashed=0;verticalLabelPosition=bottom;verticalAlign=top;align=center;html=1;fontSize=12;fontStyle=0;aspect=fixed;shape=mxgraph.aws4.resourceIcon;resIcon=mxgraph.aws4.internet_gateway;" vertex="1" parent="1">
          <mxGeometry x="645" y="700" width="40" height="40" as="geometry" />
        </mxCell>
        <mxCell id="B0TIL4bSB5Exnn931L6U-72" value="" style="edgeStyle=orthogonalEdgeStyle;rounded=0;orthogonalLoop=1;jettySize=auto;html=1;dashed=1;fontColor=#000000;startArrow=none;startFill=0;strokeColor=#E3E3E3;" edge="1" parent="1" source="B0TIL4bSB5Exnn931L6U-10" target="B6OoX21ZwnaRHiZaLL_V-46">
          <mxGeometry relative="1" as="geometry" />
        </mxCell>
        <mxCell id="B0TIL4bSB5Exnn931L6U-10" value="&lt;font color=&quot;#879196&quot;&gt;NAT gateway&lt;/font&gt;" style="sketch=0;outlineConnect=0;fontColor=#232F3E;gradientColor=none;strokeColor=#232F3E;fillColor=#ffffff;dashed=0;verticalLabelPosition=bottom;verticalAlign=top;align=center;html=1;fontSize=12;fontStyle=0;aspect=fixed;shape=mxgraph.aws4.resourceIcon;resIcon=mxgraph.aws4.nat_gateway;" vertex="1" parent="1">
          <mxGeometry x="509" y="799" width="31" height="31" as="geometry" />
        </mxCell>
        <mxCell id="B0TIL4bSB5Exnn931L6U-11" value="&lt;font color=&quot;#879196&quot;&gt;NAT gateway&lt;/font&gt;" style="sketch=0;outlineConnect=0;fontColor=#232F3E;gradientColor=none;strokeColor=#232F3E;fillColor=#ffffff;dashed=0;verticalLabelPosition=bottom;verticalAlign=top;align=center;html=1;fontSize=12;fontStyle=0;aspect=fixed;shape=mxgraph.aws4.resourceIcon;resIcon=mxgraph.aws4.nat_gateway;" vertex="1" parent="1">
          <mxGeometry x="888" y="799" width="31" height="31" as="geometry" />
        </mxCell>
        <mxCell id="B0TIL4bSB5Exnn931L6U-14" value="&lt;b&gt;&lt;font color=&quot;#879196&quot;&gt;VPC&lt;/font&gt;&lt;/b&gt;" style="text;html=1;resizable=0;autosize=1;align=center;verticalAlign=middle;points=[];fillColor=none;strokeColor=none;rounded=0;" vertex="1" parent="1">
          <mxGeometry x="306" y="732" width="40" height="20" as="geometry" />
        </mxCell>
        <mxCell id="B0TIL4bSB5Exnn931L6U-87" style="edgeStyle=orthogonalEdgeStyle;rounded=0;orthogonalLoop=1;jettySize=auto;html=1;fontColor=#919191;startArrow=none;startFill=0;strokeColor=#000000;" edge="1" parent="1" source="B0TIL4bSB5Exnn931L6U-19" target="B0TIL4bSB5Exnn931L6U-1">
          <mxGeometry relative="1" as="geometry" />
        </mxCell>
        <mxCell id="B0TIL4bSB5Exnn931L6U-19" value="" style="sketch=0;outlineConnect=0;fontColor=#232F3E;gradientColor=none;fillColor=#232F3D;strokeColor=none;dashed=0;verticalLabelPosition=bottom;verticalAlign=top;align=center;html=1;fontSize=12;fontStyle=0;aspect=fixed;pointerEvents=1;shape=mxgraph.aws4.client;" vertex="1" parent="1">
          <mxGeometry x="-86" y="1005.99" width="86" height="83.79" as="geometry" />
        </mxCell>
        <mxCell id="B0TIL4bSB5Exnn931L6U-21" value="&lt;font color=&quot;#000000&quot;&gt;&lt;b&gt;Client&lt;/b&gt;&lt;/font&gt;" style="text;html=1;resizable=0;autosize=1;align=center;verticalAlign=middle;points=[];fillColor=none;strokeColor=none;rounded=0;fontColor=#879196;" vertex="1" parent="1">
          <mxGeometry x="-68" y="1109" width="50" height="20" as="geometry" />
        </mxCell>
        <mxCell id="B0TIL4bSB5Exnn931L6U-25" value="Cognito User Pools" style="text;html=1;resizable=0;autosize=1;align=center;verticalAlign=middle;points=[];fillColor=none;strokeColor=none;rounded=0;fontColor=#000000;fontStyle=1" vertex="1" parent="1">
          <mxGeometry x="30" y="1107" width="130" height="20" as="geometry" />
        </mxCell>
        <mxCell id="B0TIL4bSB5Exnn931L6U-47" value="" style="edgeStyle=orthogonalEdgeStyle;rounded=0;orthogonalLoop=1;jettySize=auto;html=1;fontColor=#000000;entryX=0.25;entryY=0;entryDx=0;entryDy=0;entryPerimeter=0;" edge="1" parent="1" source="B0TIL4bSB5Exnn931L6U-45" target="B0TIL4bSB5Exnn931L6U-46">
          <mxGeometry relative="1" as="geometry">
            <Array as="points">
              <mxPoint x="635" y="1190" />
              <mxPoint x="635" y="1190" />
            </Array>
          </mxGeometry>
        </mxCell>
        <mxCell id="B0TIL4bSB5Exnn931L6U-61" style="edgeStyle=orthogonalEdgeStyle;rounded=0;orthogonalLoop=1;jettySize=auto;html=1;fontColor=#000000;" edge="1" parent="1">
          <mxGeometry relative="1" as="geometry">
            <mxPoint x="672" y="1090" as="sourcePoint" />
            <mxPoint x="672" y="1020" as="targetPoint" />
          </mxGeometry>
        </mxCell>
        <mxCell id="B0TIL4bSB5Exnn931L6U-45" value="" style="sketch=0;points=[[0,0,0],[0.25,0,0],[0.5,0,0],[0.75,0,0],[1,0,0],[0,1,0],[0.25,1,0],[0.5,1,0],[0.75,1,0],[1,1,0],[0,0.25,0],[0,0.5,0],[0,0.75,0],[1,0.25,0],[1,0.5,0],[1,0.75,0]];outlineConnect=0;fontColor=#232F3E;gradientColor=#FF4F8B;gradientDirection=north;fillColor=#BC1356;strokeColor=#ffffff;dashed=0;verticalLabelPosition=bottom;verticalAlign=top;align=center;html=1;fontSize=12;fontStyle=0;aspect=fixed;shape=mxgraph.aws4.resourceIcon;resIcon=mxgraph.aws4.api_gateway;" vertex="1" parent="1">
          <mxGeometry x="616" y="1100" width="78" height="78" as="geometry" />
        </mxCell>
        <mxCell id="B0TIL4bSB5Exnn931L6U-59" style="edgeStyle=orthogonalEdgeStyle;rounded=0;orthogonalLoop=1;jettySize=auto;html=1;exitX=0.75;exitY=0;exitDx=0;exitDy=0;exitPerimeter=0;entryX=0.75;entryY=1;entryDx=0;entryDy=0;entryPerimeter=0;fontColor=#000000;" edge="1" parent="1" source="B0TIL4bSB5Exnn931L6U-46" target="B0TIL4bSB5Exnn931L6U-45">
          <mxGeometry relative="1" as="geometry" />
        </mxCell>
        <mxCell id="B0TIL4bSB5Exnn931L6U-79" style="edgeStyle=orthogonalEdgeStyle;rounded=0;orthogonalLoop=1;jettySize=auto;html=1;fontColor=#919191;startArrow=none;startFill=0;strokeColor=#000000;" edge="1" parent="1" source="B0TIL4bSB5Exnn931L6U-46">
          <mxGeometry relative="1" as="geometry">
            <mxPoint x="655" y="1380" as="targetPoint" />
          </mxGeometry>
        </mxCell>
        <mxCell id="B0TIL4bSB5Exnn931L6U-46" value="" style="sketch=0;points=[[0,0,0],[0.25,0,0],[0.5,0,0],[0.75,0,0],[1,0,0],[0,1,0],[0.25,1,0],[0.5,1,0],[0.75,1,0],[1,1,0],[0,0.25,0],[0,0.5,0],[0,0.75,0],[1,0.25,0],[1,0.5,0],[1,0.75,0]];outlineConnect=0;fontColor=#232F3E;gradientColor=#F78E04;gradientDirection=north;fillColor=#D05C17;strokeColor=#ffffff;dashed=0;verticalLabelPosition=bottom;verticalAlign=top;align=center;html=1;fontSize=12;fontStyle=0;aspect=fixed;shape=mxgraph.aws4.resourceIcon;resIcon=mxgraph.aws4.lambda;" vertex="1" parent="1">
          <mxGeometry x="615" y="1231" width="79" height="79" as="geometry" />
        </mxCell>
        <mxCell id="B0TIL4bSB5Exnn931L6U-71" value="&lt;font color=&quot;#919191&quot;&gt;API Gateway&lt;/font&gt;" style="text;html=1;resizable=0;autosize=1;align=center;verticalAlign=middle;points=[];fillColor=none;strokeColor=none;rounded=0;fontColor=#000000;" vertex="1" parent="1">
          <mxGeometry x="700" y="1129" width="90" height="20" as="geometry" />
        </mxCell>
        <mxCell id="B0TIL4bSB5Exnn931L6U-73" value="" style="outlineConnect=0;dashed=0;verticalLabelPosition=bottom;verticalAlign=top;align=center;html=1;shape=mxgraph.aws3.dynamo_db;fillColor=#2E73B8;gradientColor=none;fontColor=#919191;strokeColor=#000000;" vertex="1" parent="1">
          <mxGeometry x="620" y="1539" width="72" height="81" as="geometry" />
        </mxCell>
        <mxCell id="B0TIL4bSB5Exnn931L6U-80" style="edgeStyle=orthogonalEdgeStyle;rounded=0;orthogonalLoop=1;jettySize=auto;html=1;fontColor=#919191;startArrow=none;startFill=0;strokeColor=#000000;" edge="1" parent="1" source="B0TIL4bSB5Exnn931L6U-77">
          <mxGeometry relative="1" as="geometry">
            <mxPoint x="655" y="1490" as="sourcePoint" />
            <mxPoint x="655" y="1530" as="targetPoint" />
          </mxGeometry>
        </mxCell>
        <mxCell id="B0TIL4bSB5Exnn931L6U-77" value="&lt;font style=&quot;font-weight: normal;&quot; color=&quot;#919191&quot;&gt;VPC Endpoint for Dynamo db&lt;/font&gt;" style="sketch=0;outlineConnect=0;fontColor=#232F3E;gradientColor=none;strokeColor=#232F3E;fillColor=#ffffff;dashed=0;verticalLabelPosition=bottom;verticalAlign=top;align=center;html=1;fontSize=12;fontStyle=1;aspect=fixed;shape=mxgraph.aws4.resourceIcon;resIcon=mxgraph.aws4.endpoints;" vertex="1" parent="1">
          <mxGeometry x="625" y="1390" width="60" height="60" as="geometry" />
        </mxCell>
        <mxCell id="B0TIL4bSB5Exnn931L6U-81" value="Dynamo DB&lt;br&gt;" style="text;html=1;resizable=0;autosize=1;align=center;verticalAlign=middle;points=[];fillColor=none;strokeColor=none;rounded=0;shadow=0;dashed=1;sketch=0;fontStyle=1" vertex="1" parent="1">
          <mxGeometry x="616" y="1639" width="80" height="20" as="geometry" />
        </mxCell>
      </root>
    </mxGraphModel>
  </diagram>
</mxfile>
